<mxfile host="app.diagrams.net" agent="Mozilla/5.0 (Windows NT 10.0; Win64; x64) AppleWebKit/537.36 (KHTML, like Gecko) Chrome/130.0.0.0 Safari/537.36" version="24.8.3">
  <diagram name="Pagina-1" id="xPDhHlpzg1FsiXaX7DNl">
    <mxGraphModel dx="1835" dy="516" grid="1" gridSize="10" guides="1" tooltips="1" connect="1" arrows="1" fold="1" page="1" pageScale="1" pageWidth="827" pageHeight="1169" math="1" shadow="0">
      <root>
        <mxCell id="0" />
        <mxCell id="1" parent="0" />
        <mxCell id="Mph295a022_wNqRbFk1q-1" value="1" style="text;html=1;align=center;verticalAlign=middle;whiteSpace=wrap;rounded=0;strokeWidth=1;fontSize=19;fontStyle=1;fontColor=#820000;fontFamily=Times New Roman;" vertex="1" parent="1">
          <mxGeometry x="150" y="360" width="60" height="30" as="geometry" />
        </mxCell>
        <mxCell id="Mph295a022_wNqRbFk1q-2" value="Collegare e raccogliere&amp;nbsp;" style="text;html=1;align=center;verticalAlign=middle;whiteSpace=wrap;rounded=0;labelPosition=center;verticalLabelPosition=middle;fontFamily=Times New Roman;fontSize=13;" vertex="1" parent="1">
          <mxGeometry x="150" y="400" width="60" height="30" as="geometry" />
        </mxCell>
        <mxCell id="Mph295a022_wNqRbFk1q-9" value="2" style="text;html=1;align=center;verticalAlign=middle;whiteSpace=wrap;rounded=0;strokeWidth=1;fontSize=19;fontStyle=1;fontColor=#820000;fontFamily=Times New Roman;" vertex="1" parent="1">
          <mxGeometry x="260" y="360" width="60" height="30" as="geometry" />
        </mxCell>
        <mxCell id="Mph295a022_wNqRbFk1q-10" value="Sensorizzare (Automazione avanzata, IOT)" style="text;html=1;align=center;verticalAlign=middle;whiteSpace=wrap;rounded=0;labelPosition=center;verticalLabelPosition=middle;fontFamily=Times New Roman;fontSize=13;" vertex="1" parent="1">
          <mxGeometry x="260" y="400" width="60" height="30" as="geometry" />
        </mxCell>
        <mxCell id="Mph295a022_wNqRbFk1q-11" value="3" style="text;html=1;align=center;verticalAlign=middle;whiteSpace=wrap;rounded=0;strokeWidth=1;fontSize=19;fontStyle=1;fontColor=#820000;fontFamily=Times New Roman;" vertex="1" parent="1">
          <mxGeometry x="370" y="360" width="60" height="30" as="geometry" />
        </mxCell>
        <mxCell id="Mph295a022_wNqRbFk1q-12" value="Analizzare e comprendere i dati" style="text;html=1;align=center;verticalAlign=middle;whiteSpace=wrap;rounded=0;labelPosition=center;verticalLabelPosition=middle;fontFamily=Times New Roman;fontSize=13;" vertex="1" parent="1">
          <mxGeometry x="370" y="400" width="60" height="30" as="geometry" />
        </mxCell>
        <mxCell id="Mph295a022_wNqRbFk1q-13" value="4" style="text;html=1;align=center;verticalAlign=middle;whiteSpace=wrap;rounded=0;strokeWidth=1;fontSize=19;fontStyle=1;fontColor=#820000;fontFamily=Times New Roman;" vertex="1" parent="1">
          <mxGeometry x="480" y="360" width="60" height="30" as="geometry" />
        </mxCell>
        <mxCell id="Mph295a022_wNqRbFk1q-14" value="Predire e correggere" style="text;html=1;align=center;verticalAlign=middle;whiteSpace=wrap;rounded=0;labelPosition=center;verticalLabelPosition=middle;fontFamily=Times New Roman;fontSize=13;" vertex="1" parent="1">
          <mxGeometry x="480" y="400" width="60" height="30" as="geometry" />
        </mxCell>
        <mxCell id="Mph295a022_wNqRbFk1q-15" value="5" style="text;html=1;align=center;verticalAlign=middle;whiteSpace=wrap;rounded=0;strokeWidth=1;fontSize=19;fontStyle=1;fontColor=#820000;fontFamily=Times New Roman;" vertex="1" parent="1">
          <mxGeometry x="590" y="360" width="60" height="30" as="geometry" />
        </mxCell>
        <mxCell id="Mph295a022_wNqRbFk1q-16" value="Integrare sistemi autonomi e additivi" style="text;html=1;align=center;verticalAlign=middle;whiteSpace=wrap;rounded=0;labelPosition=center;verticalLabelPosition=middle;fontFamily=Times New Roman;fontSize=13;" vertex="1" parent="1">
          <mxGeometry x="590" y="400" width="60" height="30" as="geometry" />
        </mxCell>
        <mxCell id="Mph295a022_wNqRbFk1q-17" value="6" style="text;html=1;align=center;verticalAlign=middle;whiteSpace=wrap;rounded=0;strokeWidth=1;fontSize=19;fontStyle=1;fontColor=#820000;fontFamily=Times New Roman;" vertex="1" parent="1">
          <mxGeometry x="700" y="360" width="60" height="30" as="geometry" />
        </mxCell>
        <mxCell id="Mph295a022_wNqRbFk1q-18" value="Trasformazione del manufacturing" style="text;html=1;align=center;verticalAlign=middle;whiteSpace=wrap;rounded=0;labelPosition=center;verticalLabelPosition=middle;fontFamily=Times New Roman;fontSize=13;" vertex="1" parent="1">
          <mxGeometry x="700" y="400" width="60" height="30" as="geometry" />
        </mxCell>
        <mxCell id="Mph295a022_wNqRbFk1q-19" value="" style="shape=flexArrow;endArrow=classic;html=1;rounded=1;strokeWidth=1;targetPerimeterSpacing=0;flowAnimation=0;shadow=0;width=22.758620689655174;endSize=12.482758620689657;fillColor=#A1CAFF;gradientColor=#FFFFFF;gradientDirection=west;fontFamily=Times New Roman;strokeColor=default;" edge="1" parent="1">
          <mxGeometry width="50" height="50" relative="1" as="geometry">
            <mxPoint x="130" y="340" as="sourcePoint" />
            <mxPoint x="790" y="340" as="targetPoint" />
          </mxGeometry>
        </mxCell>
        <mxCell id="Mph295a022_wNqRbFk1q-21" value="Percorso di trasformazione - Uso degli strumenti digitali per migliorare e potenziare i processi fisici" style="edgeLabel;html=1;align=center;verticalAlign=middle;resizable=0;points=[];labelBackgroundColor=none;fontColor=#000000;fontSize=12;fontStyle=1;fontFamily=Times New Roman;" vertex="1" connectable="0" parent="Mph295a022_wNqRbFk1q-19">
          <mxGeometry x="0.4609" y="1" relative="1" as="geometry">
            <mxPoint x="-148" as="offset" />
          </mxGeometry>
        </mxCell>
        <mxCell id="Mph295a022_wNqRbFk1q-37" value="" style="endArrow=none;html=1;rounded=0;curved=1;strokeWidth=4;fillColor=#f8cecc;strokeColor=#b85450;dashed=1;fontFamily=Times New Roman;" edge="1" parent="1">
          <mxGeometry width="50" height="50" relative="1" as="geometry">
            <mxPoint x="130" y="310" as="sourcePoint" />
            <mxPoint x="800" y="120" as="targetPoint" />
            <Array as="points">
              <mxPoint x="380" y="310" />
              <mxPoint x="630" y="250" />
            </Array>
          </mxGeometry>
        </mxCell>
        <mxCell id="Mph295a022_wNqRbFk1q-38" value="Valorizzare quanto esistente" style="rounded=1;whiteSpace=wrap;html=1;gradientColor=#FFFFFF;strokeColor=#000000;gradientDirection=west;fillColor=#A1CAFF;fontColor=#000000;fontSize=12;fontFamily=Times New Roman;strokeWidth=1;" vertex="1" parent="1">
          <mxGeometry x="135" y="260" width="90" height="50" as="geometry" />
        </mxCell>
        <mxCell id="Mph295a022_wNqRbFk1q-39" value="Acquisire e storicizzare i dati" style="rounded=1;whiteSpace=wrap;html=1;gradientColor=#FFFFFF;strokeColor=#000000;gradientDirection=west;fillColor=#A1CAFF;fontColor=#000000;fontSize=12;fontFamily=Times New Roman;strokeWidth=1;glass=0;" vertex="1" parent="1">
          <mxGeometry x="135" y="200" width="90" height="50" as="geometry" />
        </mxCell>
        <mxCell id="Mph295a022_wNqRbFk1q-40" value="Estensione capacità di monitoraggio" style="rounded=1;whiteSpace=wrap;html=1;gradientColor=#FFFFFF;strokeColor=#000000;gradientDirection=west;fillColor=#A1CAFF;fontColor=#000000;fontSize=12;fontFamily=Times New Roman;strokeWidth=1;" vertex="1" parent="1">
          <mxGeometry x="245" y="250" width="90" height="50" as="geometry" />
        </mxCell>
        <mxCell id="Mph295a022_wNqRbFk1q-41" value="Aumento capacità di controllo" style="rounded=1;whiteSpace=wrap;html=1;gradientColor=#FFFFFF;strokeColor=#000000;gradientDirection=west;fillColor=#A1CAFF;fontColor=#000000;fontSize=12;fontFamily=Times New Roman;strokeWidth=1;" vertex="1" parent="1">
          <mxGeometry x="245" y="190" width="90" height="50" as="geometry" />
        </mxCell>
        <mxCell id="Mph295a022_wNqRbFk1q-42" value="Monitoraggio e controllo avanzato" style="rounded=1;whiteSpace=wrap;html=1;gradientColor=#FFFFFF;strokeColor=#000000;gradientDirection=west;fillColor=#A1CAFF;fontColor=#000000;fontSize=12;fontFamily=Times New Roman;strokeWidth=1;" vertex="1" parent="1">
          <mxGeometry x="355" y="240" width="90" height="50" as="geometry" />
        </mxCell>
        <mxCell id="Mph295a022_wNqRbFk1q-43" value="Business intelligence e Analytics" style="rounded=1;whiteSpace=wrap;html=1;gradientColor=#FFFFFF;strokeColor=#000000;gradientDirection=west;fillColor=#A1CAFF;fontColor=#000000;fontSize=12;fontFamily=Times New Roman;strokeWidth=1;" vertex="1" parent="1">
          <mxGeometry x="355" y="180" width="90" height="50" as="geometry" />
        </mxCell>
        <mxCell id="Mph295a022_wNqRbFk1q-44" value="Manutenzione predittiva" style="rounded=1;whiteSpace=wrap;html=1;gradientColor=#FFFFFF;strokeColor=#000000;gradientDirection=west;fillColor=#A1CAFF;fontColor=#000000;fontSize=12;fontFamily=Times New Roman;strokeWidth=1;" vertex="1" parent="1">
          <mxGeometry x="465" y="230" width="90" height="50" as="geometry" />
        </mxCell>
        <mxCell id="Mph295a022_wNqRbFk1q-45" value="Qualità&amp;nbsp;&lt;div style=&quot;font-size: 12px;&quot;&gt;predittiva&lt;/div&gt;" style="rounded=1;whiteSpace=wrap;html=1;gradientColor=#FFFFFF;strokeColor=#000000;gradientDirection=west;fillColor=#A1CAFF;fontColor=#000000;fontSize=12;fontFamily=Times New Roman;strokeWidth=1;" vertex="1" parent="1">
          <mxGeometry x="465" y="170" width="90" height="50" as="geometry" />
        </mxCell>
        <mxCell id="Mph295a022_wNqRbFk1q-46" value="Modelli virtuali" style="rounded=1;whiteSpace=wrap;html=1;gradientColor=#FFFFFF;strokeColor=#000000;gradientDirection=west;fillColor=#A1CAFF;fontColor=#000000;fontSize=12;fontFamily=Times New Roman;strokeWidth=1;" vertex="1" parent="1">
          <mxGeometry x="575" y="220" width="90" height="50" as="geometry" />
        </mxCell>
        <mxCell id="Mph295a022_wNqRbFk1q-47" value="Machine to Machine" style="rounded=1;whiteSpace=wrap;html=1;gradientColor=#FFFFFF;strokeColor=#000000;gradientDirection=west;fillColor=#A1CAFF;fontColor=#000000;fontSize=12;fontFamily=Times New Roman;strokeWidth=1;" vertex="1" parent="1">
          <mxGeometry x="575" y="160" width="90" height="50" as="geometry" />
        </mxCell>
        <mxCell id="Mph295a022_wNqRbFk1q-48" value="Coordinamento della supply chain" style="rounded=1;whiteSpace=wrap;html=1;gradientColor=#FFFFFF;strokeColor=#000000;gradientDirection=west;fillColor=#A1CAFF;fontColor=#000000;fontSize=12;fontFamily=Times New Roman;strokeWidth=1;" vertex="1" parent="1">
          <mxGeometry x="680" y="210" width="90" height="50" as="geometry" />
        </mxCell>
        <mxCell id="Mph295a022_wNqRbFk1q-49" value="Simulazione dei processi" style="rounded=1;whiteSpace=wrap;html=1;gradientColor=#FFFFFF;strokeColor=#000000;gradientDirection=west;fillColor=#A1CAFF;fontColor=#000000;fontSize=12;fontFamily=Times New Roman;strokeWidth=1;" vertex="1" parent="1">
          <mxGeometry x="680" y="150" width="90" height="50" as="geometry" />
        </mxCell>
        <mxCell id="Mph295a022_wNqRbFk1q-50" value="Processi automatici in auto apprendimento" style="rounded=1;whiteSpace=wrap;html=1;gradientColor=#FFFFFF;strokeColor=#000000;gradientDirection=west;fillColor=#A1CAFF;fontColor=#000000;fontSize=12;fontFamily=Times New Roman;strokeWidth=1;" vertex="1" parent="1">
          <mxGeometry x="680" y="90" width="90" height="50" as="geometry" />
        </mxCell>
        <mxCell id="Mph295a022_wNqRbFk1q-51" value="Curva del valore" style="text;html=1;align=center;verticalAlign=middle;whiteSpace=wrap;rounded=0;labelPosition=center;verticalLabelPosition=middle;fontFamily=Lucida Console;fontColor=#FF0000;" vertex="1" parent="1">
          <mxGeometry x="800" y="90" width="60" height="40" as="geometry" />
        </mxCell>
        <mxCell id="Mph295a022_wNqRbFk1q-52" value="Costi&lt;div style=&quot;font-size: 13px;&quot;&gt;\(\bullet\) Riqualificazione delle risorse umane&lt;/div&gt;&lt;div style=&quot;font-size: 13px;&quot;&gt;&lt;span style=&quot;text-align: center; font-size: 13px;&quot;&gt;\(\bullet\) Adeguamento delle parti fisiche&amp;nbsp;&lt;/span&gt;&lt;/div&gt;&lt;div style=&quot;font-size: 13px;&quot;&gt;&lt;span style=&quot;text-align: center; font-size: 13px;&quot;&gt;\(\bullet\) Acquisto di nuovi strumenti hardware e software&lt;/span&gt;&lt;span style=&quot;text-align: center; font-size: 13px;&quot;&gt;&lt;/span&gt;&lt;/div&gt;&lt;div style=&quot;font-size: 13px;&quot;&gt;&lt;span style=&quot;text-align: center; font-size: 13px;&quot;&gt;\(\bullet\) Rimodellazione della gestione dei processi&amp;nbsp;&lt;/span&gt;&lt;span style=&quot;text-align: center; font-size: 13px;&quot;&gt;&lt;/span&gt;&lt;/div&gt;&lt;div style=&quot;font-size: 13px;&quot;&gt;&lt;span style=&quot;text-align: center; font-size: 13px;&quot;&gt;\(\bullet\) Rischio di errori implementativi&lt;/span&gt;&lt;/div&gt;" style="rounded=0;whiteSpace=wrap;html=1;verticalAlign=top;align=left;fillColor=#ffe6cc;strokeColor=#d79b00;fontSize=13;fontFamily=Times New Roman;" vertex="1" parent="1">
          <mxGeometry x="-10" y="170" width="120" height="211.25" as="geometry" />
        </mxCell>
        <mxCell id="Mph295a022_wNqRbFk1q-53" value="Benefici&lt;div style=&quot;font-size: 13px;&quot;&gt;\(\bullet\) Incrementare la produttività&amp;nbsp;&lt;br style=&quot;font-size: 13px;&quot;&gt;&lt;/div&gt;&lt;div style=&quot;font-size: 13px;&quot;&gt;\(\bullet\) Ridurre i costi per mancata qualità&amp;nbsp;&lt;/div&gt;&lt;div style=&quot;font-size: 13px;&quot;&gt;\(\bullet\) Minimizzare costi di manutenzione&amp;nbsp;&lt;/div&gt;&lt;div style=&quot;font-size: 13px;&quot;&gt;\(\bullet\) Aumentare la flessibilità&amp;nbsp;&lt;/div&gt;&lt;div style=&quot;font-size: 13px;&quot;&gt;\(\bullet\) Ridurre i magazzini&amp;nbsp;&lt;/div&gt;&lt;div style=&quot;font-size: 13px;&quot;&gt;\(\bullet\) Cambio prodotto rapido&amp;nbsp;&lt;/div&gt;&lt;div style=&quot;font-size: 13px;&quot;&gt;\(\bullet\) lotti minimi&amp;nbsp;&lt;/div&gt;&lt;div style=&quot;font-size: 13px;&quot;&gt;\(\bullet\) Minore time to market&lt;/div&gt;" style="rounded=0;whiteSpace=wrap;html=1;verticalAlign=top;align=left;fillColor=#d5e8d4;strokeColor=#82b366;fontSize=13;fontFamily=Times New Roman;glass=0;" vertex="1" parent="1">
          <mxGeometry x="800" y="140" width="120" height="241.25" as="geometry" />
        </mxCell>
      </root>
    </mxGraphModel>
  </diagram>
</mxfile>
